# xmcd
# Track frame offsets:
# 150
# 13876
# 28359
# 41569
# 53347
# 66462
# 78663
# 89329
# 102019
# 114498
#
# Disc length: 1686 seconds
# Revision: 0
# Processed by: cddbd v1.4PL0 Copyright (c) Steve Scherf et al.
# Submitted via: VisiTrax 2.9.5.181 - For more info visit www.synapsa.com
#
DISCID=8006940a
DTITLE=Various Artist - Real 70s Country Disc 3
DYEAR=2003
DGENRE=Country
TTITLE0=Waylon Jennings and Willie Nelson - Good Hearted Woman
TTITLE1=Willie Nelson - Sweet Memories
TTITLE2=Dolly Parton - Here You Come Again
TTITLE3=Charley Pride - She's Just An Old Love Turned Memory
TTITLE4=Jennifer Warnes - Right Time Of The Night
TTITLE5=Bobby Bare - Daddy What If
TTITLE6=Jim Reeves - Don't Let Me Cross Over
TTITLE7=Jim Ed Brown and Helen Cornelius - Lying In Love With You
TTITLE8=Zella Lehr - Two Doors Down
TTITLE9=Razzy Bailey - If Love Had A Face
EXTD=BMG Special Products.
EXTT0=
EXTT1=
EXTT2=
EXTT3=
EXTT4=
EXTT5=
EXTT6=
EXTT7=
EXTT8=
EXTT9=
PLAYORDER=
